<svg width="164" height="45" viewBox="0 0 164 45" fill="none" xmlns="http://www.w3.org/2000/svg">
<path d="M88.7931 35.33C87.9593 34.2263 87.2684 33.0266 87.0778 32.6667C86.6252 31.9229 85.7199 30.9152 84.7669 30.6273C87.1254 30.2914 88.0784 28.4439 88.0784 26.7404C88.0784 23.7652 85.5293 22.8295 82.8849 22.8295H75.5712V23.0694H75.8571C76.5479 23.0694 77.0959 23.5973 77.1197 24.3171V35.7139C77.0959 36.4337 76.5241 36.9855 75.8571 36.9855H75.5712V37.2255H82.1226V36.9855H81.8605C81.2173 36.9855 80.5741 36.5057 80.5741 35.6899V23.8132C80.8361 23.8132 81.3126 23.7892 81.932 23.8132C82.742 23.8612 84.3619 24.1971 84.4572 26.5724C84.4811 27.0283 84.4334 27.3882 84.3858 27.5801C83.9808 29.5956 82.8849 29.9555 81.9082 29.9795C81.5508 29.9795 81.3126 29.9795 81.2888 29.9795V30.1714C81.7414 30.1954 82.3132 30.6273 82.7181 31.635C82.9326 32.4508 83.7902 34.0583 84.3143 34.9221C85.4578 36.6976 86.6728 37.2015 89.2457 37.2015H91.2469V36.9615C90.2701 36.9615 89.7222 36.6256 88.7931 35.33Z" fill="#0D0D0D"/>
<path d="M103.664 26.7884C103.592 24.557 101.948 22.8055 98.1366 22.8055H91.0849V23.0454H91.3708C92.0855 23.0454 92.6573 23.5973 92.6573 24.3171V35.7139C92.6334 36.4337 92.0855 36.9855 91.3708 36.9855H91.0849V37.2015H97.684V36.9615H97.3981C96.6357 36.9615 96.1116 36.4337 96.0878 35.7139V23.7652H97.1837C98.9466 23.7652 99.9948 24.8689 100.042 26.6204C100.042 26.9803 99.9948 27.4842 99.8995 27.8921C99.1848 30.5793 96.8501 30.3154 96.8501 30.3154V30.5313C99.971 32.6427 103.807 30.6033 103.664 26.7884Z" fill="#0D0D0D"/>
<path d="M119.743 24.341C119.743 23.5973 120.338 23.0454 121.053 23.0454H121.315V22.8055H114.74V23.0454H115.002C115.717 23.0454 116.288 23.5973 116.312 24.341V29.5716H110.047V24.3171C110.071 23.5973 110.642 23.0454 111.357 23.0454H111.619V22.8055H105.044V23.0454H105.306C105.997 23.0454 106.592 23.5973 106.592 24.341V35.6899C106.592 36.4337 105.997 36.9855 105.306 36.9855L105.044 36.9615V37.2015H111.619V36.9615L111.357 36.9855C110.642 36.9855 110.071 36.4337 110.047 35.7139V30.5073H116.312V35.7139C116.288 36.4337 115.717 36.9855 115.002 36.9855H114.74V37.2255H121.291V36.9855H121.029C120.315 36.9855 119.743 36.4337 119.743 35.7139V24.341Z" fill="#0D0D0D"/>
<path d="M134.683 32.8107C134.063 34.9221 132.682 36.2177 130.68 36.2417H127.798V30.5553H130.537C131.657 30.6033 132.324 31.3951 132.324 32.4508V32.6187H132.586V27.5562H132.324V27.7001C132.324 28.7798 131.633 29.5716 130.514 29.5956H127.798V23.7892H131.228C132.61 23.8132 133.396 24.677 133.396 26.0446V26.2845H133.658V22.4456C133.277 22.5895 132.062 22.8055 131.181 22.8055H122.795V23.0454H123.081C123.772 23.0454 124.367 23.5973 124.367 24.3171V35.7139C124.343 36.4337 123.772 36.9615 123.081 36.9615H122.795V37.2015H133.992L134.921 32.8107H134.683Z" fill="#0D0D0D"/>
<path d="M151.727 22.8055H147.32V23.0214H147.653C148.249 23.0214 148.725 23.4533 148.749 24.0531V32.1389C148.725 34.9221 147.248 36.5776 144.771 36.5776C142.341 36.5776 140.911 34.8261 140.911 31.8749V24.0771C140.935 23.4533 141.388 23.0214 141.983 23.0214H142.341V22.8055H136.075V23.0214H136.385C136.981 23.0214 137.481 23.4533 137.481 24.0771V32.0189C137.481 35.4499 139.72 37.5134 144.318 37.5134C148.13 37.5134 150.322 35.426 150.322 31.9709V24.0531C150.322 23.4533 150.822 23.0214 151.394 23.0214H151.727V22.8055Z" fill="#0D0D0D"/>
<path d="M157.732 27.2442C156.803 26.7404 156.112 26.2365 156.184 25.3248C156.255 24.2451 157.256 23.4773 158.781 23.4773C160.686 23.4773 161.759 24.413 161.759 25.8766H161.949L162.235 23.1414L162.283 22.7335H160.996C159.996 22.6135 158.685 22.5176 157.899 22.5176C155.469 22.5176 153.802 23.8612 153.611 26.1405C153.42 27.7961 154.111 29.2357 155.707 30.0754L159.09 32.2348C160.377 32.8827 160.877 33.5545 160.877 34.3942C160.877 35.5699 159.972 36.5536 158.114 36.5776C155.588 36.5776 154.04 34.7541 154.183 32.5947H153.992C153.42 33.5065 153.111 35.33 153.468 36.2417C154.159 36.9855 155.803 37.5134 157.852 37.5134C161.163 37.5134 163.307 35.8818 163.45 33.1706C163.569 31.4671 162.759 30.2434 161.496 29.5716L157.732 27.2442Z" fill="#0D0D0D"/>
<path d="M66.8254 20.3709C61.3027 18.8805 56.8957 21.1688 55.5145 26.3602C54.1272 31.5747 56.8139 35.7525 62.3366 37.2429C67.8594 38.7333 72.2372 36.462 73.6245 31.2474C75.0057 26.056 72.3482 21.8613 66.8254 20.3709ZM62.5956 36.2695C59.351 35.3939 58.0614 31.9906 59.2822 27.4018C60.5092 22.7898 63.3157 20.4919 66.5603 21.3675C69.8049 22.2431 71.0715 25.6402 69.8445 30.2522C68.6236 34.841 65.8402 37.1451 62.5956 36.2695Z" fill="#0D0D0D"/>
<path d="M23.1796 40.7692C33.0806 39.6276 40.7692 31.1898 40.7692 20.9503C40.7692 9.93207 31.8666 1 20.8846 1C9.90265 1 1 9.93207 1 20.9503C1 28.1478 4.79887 34.4551 10.4947 37.9639" stroke="url(#paint0_radial_331_215)" stroke-linecap="round"/>
<path d="M32.0988 21.6321C32.0419 21.107 32.1086 20.3553 31.9742 19.9389C31.9742 19.9346 31.972 19.926 31.9693 19.9114C31.6787 21.0649 32.0414 22.3404 31.4414 23.4087C30.9367 24.0826 30.9519 24.8888 31.003 25.6816C31.0346 27.0087 31.1366 28.3384 31.1308 29.6646C30.9652 30.6929 29.9531 29.6607 29.3901 29.8915C28.8444 30.1923 28.3882 29.8163 28.2631 29.2804C27.9494 29.9104 28.2013 30.4368 28.7834 30.7093C29.0153 30.8571 29.0683 31.4398 28.6673 31.3677C27.6405 31.1996 26.8683 31.8507 25.9198 32.0209C26.5536 32.3591 28.3637 31.3333 28.2578 32.5593C28.2039 33.1988 27.2947 32.8413 27.1135 33.4399C27.8105 34.0205 27.4513 35.1271 26.6239 35.3978C23.9566 35.8628 21.3782 34.2147 19.0981 33.0699C17.3716 32.0028 16.4632 30.1411 16.1134 28.2498C15.9563 27.848 17.5928 28.6228 17.8407 28.2361C14.7697 27.9043 13.6917 19.9982 17.8132 22.927C18.1999 23.3632 18.3962 23.9197 18.5226 24.4741C18.5226 24.9631 19.5814 23.771 20.7662 24.41C22.332 24.9309 23.2173 23.4276 24.3638 22.7241C25.3848 22.0236 26.5282 21.4671 27.4411 20.6385C27.847 20.287 26.3635 20.5706 26.1477 20.0244C25.6083 19.4387 24.7724 19.0923 24.0558 19.5947C23.4892 20.0339 22.5742 20.6639 22.4829 21.3304C23.7794 19.8285 24.5748 19.5685 26.2331 20.7752C26.4512 20.841 26.4036 20.9497 26.2901 21.0515C25.987 21.339 25.5744 21.1805 25.2219 21.0945C24.293 20.6987 23.1269 20.9712 23.0134 22.043C23.2711 21.5612 24.6834 20.9634 24.8111 21.6265C23.5827 22.5037 22.6129 24.3318 20.8468 23.9064C20.2388 23.7345 19.4288 23.5243 19.0896 23.0065C19.9798 23.3967 21.2825 23.6941 21.9951 22.8801C18.7425 24.401 18.3419 19.0833 15.9229 20.6626C16.8936 20.556 18.5084 22.2682 16.9688 21.8479C15.7791 21.4181 15.0902 23.0443 13.9988 22.4306C12.9729 21.6351 14.6188 22.3803 14.8302 21.7039C14.9477 21.5569 14.8418 21.446 14.682 21.526C13.5649 21.8199 13.4127 21.4976 12.6547 20.9982C12.6454 21.1465 12.9382 21.6493 12.6293 21.5939C12.3707 21.6085 11.5745 20.9493 11.9021 21.4615C12.4998 22.1272 13.9677 22.7482 13.5489 23.7822C13.0762 23.1444 13.0268 23.101 12.6721 23.0297C12.8821 23.428 13.0789 23.8178 13.0562 24.2712C12.5977 23.8372 12.5136 23.0228 11.7356 22.856C11.4272 22.7469 11.0075 22.4057 11.0778 22.0825C11.5611 22.3949 11.8816 22.5664 12.308 22.4358C11.7423 21.9708 10.9403 21.706 10.8437 20.7726C10.9153 20.4464 10.1 19.1989 10.4943 19.2487C10.7794 19.4181 10.9968 19.6756 11.1112 19.9793C12.5096 21.7769 12.0859 20.2058 11.2549 19.3063C10.991 18.8379 9.36468 17.6973 9.47195 18.8018C9.81599 19.8392 10.3056 20.9394 9.93038 22.0365C9.34109 23.343 9.0696 21.3489 8.9788 20.8332C8.84973 20.4787 8.93429 19.9346 8.70686 19.6785C8.54173 19.8787 8.61784 20.2586 8.60315 20.5195C8.94097 22.3885 8.46963 25.1922 9.95619 26.8329C10.1618 27.9967 10.7377 29.0281 11.9114 29.5833C12.5176 30.6577 12.1153 32.2409 12.1068 33.4756C11.9079 35.9776 10.3252 37.9548 8.92584 39.9579C5.42307 46.8283 10.3701 39.1908 17.1455 41.5841C20.2095 42.5764 22.9672 44.374 26.1922 44.9052C28.9788 45.6624 21.9194 41.6601 21.627 40.8724C21.2087 39.4972 21.9777 37.8848 22.0846 36.4516C22.1705 36.0064 22.0717 35.9875 22.6632 36.0132C23.9726 36.082 25.3011 36.1559 26.5977 35.9174C28.7274 35.562 27.2065 33.6505 28.2587 33.1747C28.8333 33.0591 28.5996 32.4377 28.6375 32.0574C28.7029 31.8812 28.949 31.9229 29.1066 31.8395C29.7297 31.5662 28.9054 30.4991 29.8423 30.4948C30.6301 30.6087 31.6733 30.6354 31.5598 29.5704C31.5532 28.0809 31.4063 26.5962 31.3952 25.1066C31.3725 23.8844 32.3436 22.8956 32.0988 21.6321ZM11.8544 27.949C10.8722 27.1952 9.69004 26.4479 9.89611 25.0641C10.2967 25.6963 10.4502 26.3297 11.1103 26.7599C11.3386 26.8471 12.4072 28.1965 11.8544 27.949ZM12.2078 26.5429C11.1908 26.3044 10.7742 25.4573 10.5481 24.5454C10.5254 24.0013 9.04245 22.431 10.4591 23.3481C10.5481 23.4182 10.5886 23.5428 10.7204 23.5583C10.78 23.3924 10.4088 22.8707 10.7707 23.055C12.113 23.7426 11.2603 25.3176 12.2163 26.2395C12.365 26.3392 12.5359 26.6456 12.2078 26.5429ZM21.3831 35.932C21.0355 37.3828 20.8397 38.859 20.578 40.3249C19.9811 40.832 18.8422 39.9313 18.3081 39.5312C17.4072 38.8973 14.5921 35.1752 15.9282 38.4998C15.9647 38.8436 16.6341 39.795 16.0377 39.8427C13.8212 38.6931 13.6036 35.4593 14.5538 33.4279C15.0363 32.5589 16.0466 32.7248 16.7249 33.2775C18.0562 34.479 20.0216 35.0003 21.3831 35.932ZM23.0094 22.0464C23.0139 22.0464 23.0175 22.0464 23.0139 22.04C23.012 22.0421 23.0102 22.0444 23.0086 22.0468L23.0094 22.0464ZM12.0289 20.8345H12.0343C12.0343 20.8345 12.0303 20.8315 12.0289 20.8345Z" fill="#0D0D0D"/>
<path d="M33.1074 16.1692C32.6089 15.0462 31.915 13.6302 30.4547 13.6023C30.2865 13.6199 30.217 13.5082 30.2215 13.3595C30.2869 11.9843 24.5356 15.4747 23.6557 15.6706C22.9169 15.9427 24.9602 14.2924 25.1151 14.0621C26.7352 12.7148 28.118 10.5631 30.2629 10.0577C30.4827 10.1699 30.5793 10.0147 30.5704 9.80673C30.918 8.55143 29.5356 7.97987 28.4648 7.87501C27.393 7.87157 26.9875 9.15781 26.3871 9.83423C26.2211 10.1149 26.0435 10.386 25.7404 10.0667C24.6723 9.38557 23.6201 8.65844 22.2942 8.54584C23.2266 8.98978 24.5743 9.38557 24.9282 10.3289C24.6331 10.1999 24.4123 9.87935 24.0687 9.89912C24.2214 10.053 24.5663 10.9628 24.2183 10.6452C23.7047 9.83337 22.8158 9.35076 21.9346 8.99235C20.3799 8.39071 19.5632 10.3607 16.4752 10.0431C18.3993 10.9426 20.8059 8.80627 22.669 10.2648C22.6147 9.87334 22.0957 9.81145 21.9048 9.49688C23.0468 9.64385 23.4038 10.7358 24.0816 11.4737C24.6322 12.1562 24.1026 11.695 23.722 11.579C23.9032 11.9555 24.4284 12.3526 24.2316 12.7475C24.0224 13.0023 23.0548 11.1656 22.4326 11.0113C21.1949 10.1561 19.6602 10.5068 18.39 11.1011C17.0343 11.7311 15.7983 10.1346 14.4631 10.7904C13.3993 11.0668 12.9943 12.3981 12.0089 12.6156C9.59256 12.5266 13.0228 11.6271 13.3486 10.8755C13.7046 10.4376 14.2316 10.2567 14.6709 9.93565C14.2703 9.85701 13.965 10.1505 13.5983 10.1729C13.9169 9.5188 14.8231 9.27556 15.5286 9.20422C16.3297 9.13632 17.1242 9.29962 17.924 9.32369C22.5368 8.70915 18.0406 7.6438 16.2545 8.25705C16.8709 8.33742 17.4384 8.41348 17.9164 8.75041C15.9242 8.46849 13.6063 8.73021 12.6814 10.7599C12.4562 11.3306 11.6964 11.206 11.3836 11.7054C10.8205 12.4132 10.3852 13.2039 9.88943 13.9529C9.55295 14.8 8.05482 17.0403 9.24318 18.0656C9.54672 17.4975 10.0194 17.0523 10.7676 17.3432C12.0583 18.1267 10.9661 16.2646 10.2023 16.6341C8.46652 17.4455 10.4622 15.9586 10.7769 15.6027C10.3065 15.6728 9.98824 16.0755 9.5663 16.1945C9.82489 14.8563 10.6171 14.1966 11.7223 13.3852C12.4954 12.6169 12.871 14.8339 13.6299 13.6633C14.0625 12.7492 15.209 12.5266 15.9189 12.059C15.2691 12.0238 14.6495 12.3135 14.1203 12.6521C14.0652 12.6869 14.0117 12.7591 13.9138 12.6693C14.7595 11.423 15.7097 11.1875 17.1282 11.6972C18.8195 11.9443 19.1235 10.5193 21.0413 11.9078C21.4365 12.1794 23.6508 13.9052 22.782 14.1777C21.4713 14.5215 20.5664 12.0779 19.188 12.8313C18.0895 13.9856 17.2626 14.6977 15.5508 14.1657C13.8733 14.1064 14.2699 15.2284 12.0173 14.4931C11.6168 14.5894 11.1241 14.7243 10.8877 15.0518C11.7677 14.9633 12.6801 14.8614 13.2738 15.6788C13.7567 16.3741 14.8178 16.595 15.4013 15.8413C15.0586 15.9513 14.1364 16.0561 14.1689 15.6496C14.4837 15.5891 14.7629 15.4154 14.95 15.1635C15.3572 14.6234 16.0627 15.1098 16.5843 15.2138C18.0566 15.7484 18.3815 13.5718 19.6656 13.564C20.173 13.6122 20.7084 13.8219 21.0453 14.2026C20.4195 14.1416 19.7395 13.8588 19.1724 14.3019C18.7994 14.6844 20.4133 14.225 20.4814 14.7269C19.4372 14.8043 18.1025 14.8481 17.3458 15.5761C18.398 15.1335 19.1453 16.2267 20.1734 15.993C17.4139 15.1949 20.2014 14.613 21.1926 15.4635C23.2845 14.8481 24.8325 12.7041 26.1205 11.0272C27.061 10.062 27.819 7.77531 29.4319 8.98677C29.877 9.19562 27.0022 11.4449 26.7023 11.9654C25.4293 13.2301 24.1466 14.5082 22.6316 15.5065C22.0579 15.9676 21.2198 16.1593 20.6599 16.4949C22.3098 16.8348 23.8644 15.8885 25.3741 15.3797C27.3939 14.843 30.4093 12.8652 31.9862 15.0492C32.6645 15.8713 32.9854 17.112 32.689 18.1344C32.6142 18.2457 32.7153 18.3364 32.831 18.2556C33.2529 18.1396 33.2792 16.4932 33.1074 16.1692ZM17.9164 8.75041C17.9235 8.75041 17.8946 8.76631 17.895 8.76717L17.9164 8.75041ZM23.4799 13.564C22.4718 12.7045 21.737 11.2864 20.2175 10.9052C21.0475 10.6538 21.7463 10.8128 22.3538 11.3444C22.7308 11.8132 24.2695 13.0634 23.4799 13.5653V13.564ZM24.3487 11.8798C24.3238 11.8695 24.3198 11.8532 24.3367 11.8321C24.354 11.8467 24.37 11.8661 24.3487 11.8811V11.8798ZM22.6761 10.27L22.669 10.2648C22.669 10.2696 22.6663 10.2743 22.6645 10.279L22.6761 10.27ZM19.0674 14.4768C19.0674 14.4686 19.0674 14.4665 19.0585 14.4678L19.0674 14.4768ZM10.7796 15.5916C10.7798 15.5962 10.7798 15.6007 10.7796 15.6053L10.7916 15.6023L10.7796 15.5916Z" fill="#0D0D0D"/>
<path d="M22.5354 20.3747C22.0156 21.431 20.8228 21.6055 19.7657 21.2402C19.8912 21.8264 20.6861 22.1663 21.2683 22.0408C18.4412 23.8887 18.8315 17.1374 15.3995 20.0356C14.824 20.6691 14.0527 21.4456 13.2079 20.8212C12.7758 20.7047 11.6947 19.097 12.7023 19.6484C14.8961 20.709 15.4547 16.7962 17.4237 17.6814C17.1936 17.9088 16.7151 17.9131 16.5255 18.2711C16.3101 18.516 17.2461 18.4 17.4224 18.721C18.8618 20.1254 20.4939 21.9708 22.5354 20.3747Z" fill="#0D0D0D"/>
<path d="M19.3206 16.7068C20.537 18.464 22.9422 17.4288 24.2677 18.7167C22.5515 17.7528 20.4351 19.9002 19.0509 18.1237C18.556 17.326 18.0717 16.4476 16.9688 16.4812C15.6906 16.4133 15.282 17.8108 14.5209 18.5405C13.3717 19.8787 11.6853 18.9114 11.7743 17.32C13.0539 20.0829 14.5098 17.6827 15.8419 16.5134C17.2176 15.4846 18.5168 16.8237 19.3424 17.8486C19.8765 18.4073 20.8428 18.7146 21.5612 18.3501C20.5811 18.0906 19.6175 17.8551 19.3206 16.7068Z" fill="#0D0D0D"/>
<path d="M30.1645 23.3928C28.6829 23.2514 27.1678 23.7757 25.7498 24.1397C26.2501 25.4642 27.7286 24.303 28.7416 24.3215C28.8956 24.2433 29.5249 24.4178 29.1911 24.5437C28.6219 24.4801 28.0922 24.6915 27.5715 24.8806C26.6244 25.0525 27.7112 25.8488 28.0362 26.1595C28.7064 26.8751 31.3889 23.6747 30.1645 23.3928ZM28.9989 25.3159C28.9543 26.3542 27.2533 25.4088 27.6756 25.0555C28.0086 24.9902 29.0078 24.7044 28.9989 25.3159Z" fill="#0D0D0D"/>
<path d="M31.2879 16.1821C30.0021 14.6822 29.8076 16.5306 28.4697 16.6341C29.5254 17.5276 30.5206 15.2289 31.1984 16.9302C30.4106 16.0278 29.7399 17.372 28.8769 17.1125C28.3517 16.8886 27.6948 16.8146 27.3125 16.3681C27.1033 16.097 26.8269 16.1129 26.5371 16.1558C26.3725 16.2878 25.1507 16.4567 25.5468 16.1451C25.8099 16.0724 26.0447 15.926 26.2216 15.7244C26.9034 15.2456 27.7793 16.1971 28.5533 16.1541C29.4827 16.2293 30.1463 13.7041 31.2879 16.1821Z" fill="#0D0D0D"/>
<path d="M18.9365 19.0055C21.1833 20.8882 21.5051 18.6785 23.5653 18.871C23.5351 18.9763 23.4683 18.9793 23.414 18.9883C22.7802 19.0824 22.4153 19.6033 21.9773 19.9956C20.9358 21.1542 19.285 20.2917 18.9365 19.0055Z" fill="#0D0D0D"/>
<path d="M29.1609 18.6849C29.237 18.8602 29.419 18.8633 29.5214 18.9664C27.8154 18.8087 28.5907 17.3716 25.7827 17.8164C28.1305 16.5658 28.5796 18.314 29.5975 18.1684C29.9495 18.0343 30.3154 17.8117 30.5611 18.2693C30.0016 18.0601 29.6558 18.5431 29.1609 18.6849Z" fill="#0D0D0D"/>
<path d="M15.7876 23.9214C15.9345 22.382 17.9489 23.0688 17.4299 24.3851C17.3854 24.453 17.3854 24.5871 17.4989 24.5664C18.0126 24.1904 17.8403 24.9163 17.6952 25.1483C17.381 25.6211 16.4935 25.3374 16.6657 24.7345C16.6898 24.3701 17.1531 23.9717 16.8821 23.6343C16.4757 23.2385 16.084 23.6837 15.7876 23.9214Z" fill="#0D0D0D"/>
<path d="M16.6965 12.5086C17.3529 12.9916 18.0103 12.359 18.6819 12.3891C17.9382 12.9615 17.2408 14.1081 16.1989 13.3186C15.6118 12.8988 14.9878 13.4403 14.4226 13.5675C14.6219 13.1068 14.9095 12.9091 15.3723 12.9082C15.8597 12.8266 17.2675 13.5851 17.3351 12.9082C17.1028 12.7999 16.8126 12.7514 16.6965 12.5086Z" fill="#0D0D0D"/>
<path d="M28.9935 19.4073C27.9943 19.8225 27.4424 18.7154 26.4566 18.8555C25.6919 18.9625 27.2684 19.9479 27.5332 20.0369C26.8211 20.1082 26.417 19.6175 26.0106 19.1284C25.9122 18.9789 25.343 18.8727 25.7128 18.7489C27.4878 18.0205 27.5648 19.0811 28.9935 19.4073Z" fill="#0D0D0D"/>
<path d="M27.0267 13.1944C27.7339 12.3857 28.9659 11.8283 29.9357 11.2606C30.3532 10.9877 30.7418 11.8394 30.3163 11.9202C29.1431 12.0625 28.0313 12.6366 27.0205 13.1949L27.0267 13.1944Z" fill="#0D0D0D"/>
<path d="M12.7535 16.9698C12.9124 17.0458 13.07 17.1288 13.301 17.0665C13.0277 16.8245 12.6939 16.6797 12.6151 16.3501C13.2444 16.9221 14.0393 16.8752 14.8196 16.7798C14.5868 17.6032 12.993 17.8955 12.7535 16.9698Z" fill="#0D0D0D"/>
<path d="M23.4612 16.7171C24.4123 16.9049 25.1707 16.9672 26.0845 16.8482C25.4551 17.837 24.2249 17.5925 23.4612 16.7171Z" fill="#0D0D0D"/>
<path d="M16.3956 25.7831C16.814 26.1367 17.2684 26.0435 17.7513 25.9077C18.0976 27.3925 15.9679 26.2627 15.9857 25.395C15.9857 25.395 16.2376 25.67 16.3956 25.7831Z" fill="#0D0D0D"/>
<path d="M31.3876 18.2775C30.6657 17.3927 29.958 17.88 29.1622 17.5994C29.9059 17.3978 31.2768 17.1271 31.3876 18.2775Z" fill="#0D0D0D"/>
<path d="M10.7889 15.601L10.8539 15.5581C10.8668 15.6427 10.7658 15.5675 10.7889 15.601Z" fill="#0D0D0D"/>
<path d="M22.6641 10.2816C22.6907 10.2792 22.7174 10.2864 22.7388 10.3019C22.7603 10.3174 22.7751 10.34 22.7802 10.3654C22.7437 10.3426 22.7006 10.2618 22.6641 10.2816Z" fill="#0D0D0D"/>
<path d="M31.3222 17.0454C31.2826 17.0166 31.2407 16.9204 31.1984 16.9302C31.271 16.9397 31.2772 17.0093 31.3222 17.0454Z" fill="#0D0D0D"/>
<path d="M12.7624 16.9782L12.7308 16.9908C12.7388 16.9863 12.7557 16.9603 12.7624 16.9782Z" fill="#0D0D0D"/>
<path d="M22.5279 20.3833L22.523 20.3506C22.5256 20.3583 22.5417 20.3773 22.5279 20.3833Z" fill="#0D0D0D"/>
<path d="M12.0289 20.8345L12.0507 20.8079C12.0441 20.8152 12.0414 20.8358 12.0289 20.8345Z" fill="#0D0D0D"/>
<path d="M19.3407 16.7089L19.3144 16.7296C19.3794 16.7519 19.2962 16.699 19.3407 16.7089Z" fill="#0D0D0D"/>
<path d="M12.6356 16.3531L12.6071 16.3754C12.6752 16.4017 12.5937 16.3411 12.6356 16.3531Z" fill="#0D0D0D"/>
<path d="M31.2723 16.1726C31.3315 16.1614 31.2843 16.2207 31.3012 16.1653C31.3066 16.1472 31.2812 16.1464 31.287 16.1812L31.2723 16.1726Z" fill="#0D0D0D"/>
<path d="M21.1935 15.4635L21.2033 15.4906C21.1984 15.4816 21.1744 15.4712 21.1935 15.4635Z" fill="#0D0D0D"/>
<path d="M19.0585 14.4678C19.0318 14.5198 19.1101 14.4747 19.0549 14.4979C19.0104 14.5129 19.0251 14.4549 19.0674 14.4768L19.0585 14.4678Z" fill="#0D0D0D"/>
<path d="M16.7147 12.5163C16.6555 12.5283 16.7045 12.4652 16.6929 12.5219C16.6902 12.5356 16.7125 12.5352 16.6996 12.509L16.7147 12.5163Z" fill="#0D0D0D"/>
<path d="M22.7825 10.3551L22.7887 10.3757C22.8238 10.337 22.7802 10.3697 22.7825 10.3551Z" fill="#0D0D0D"/>
<path d="M31.3079 17.0364L31.3315 17.0321C31.2906 16.9913 31.3369 17.06 31.3079 17.0364Z" fill="#0D0D0D"/>
<defs>
<radialGradient id="paint0_radial_331_215" cx="0" cy="0" r="1" gradientUnits="userSpaceOnUse" gradientTransform="translate(20.8846 1) rotate(90) scale(50.7509 32.2972)">
<stop stop-color="#F7D587"/>
<stop offset="0.595199" stop-color="#8A5B08"/>
<stop offset="1" stop-opacity="0"/>
</radialGradient>
</defs>
</svg>
