<svg width="107" height="14" viewBox="0 0 107 14" fill="none" xmlns="http://www.w3.org/2000/svg">
<path d="M2.01 6.358H8.508V7.906H2.01V6.358ZM2.19 13H0.39V0.399999H9.282V1.966H2.19V13ZM11.4558 13V0.399999H16.3698C17.4738 0.399999 18.4158 0.573999 19.1958 0.922C19.9758 1.27 20.5758 1.774 20.9958 2.434C21.4158 3.094 21.6258 3.88 21.6258 4.792C21.6258 5.704 21.4158 6.49 20.9958 7.15C20.5758 7.798 19.9758 8.296 19.1958 8.644C18.4158 8.992 17.4738 9.166 16.3698 9.166H12.4458L13.2558 8.338V13H11.4558ZM19.8798 13L16.6758 8.428H18.6018L21.8418 13H19.8798ZM13.2558 8.518L12.4458 7.636H16.3158C17.4678 7.636 18.3378 7.39 18.9258 6.898C19.5258 6.394 19.8258 5.692 19.8258 4.792C19.8258 3.892 19.5258 3.196 18.9258 2.704C18.3378 2.212 17.4678 1.966 16.3158 1.966H12.4458L13.2558 1.066V8.518ZM25.8119 5.836H32.2919V7.366H25.8119V5.836ZM25.9739 11.434H33.3179V13H24.1739V0.399999H33.0659V1.966H25.9739V11.434ZM37.5105 5.836H43.9905V7.366H37.5105V5.836ZM37.6725 11.434H45.0165V13H35.8725V0.399999H44.7645V1.966H37.6725V11.434ZM55.7171 13.144C54.7571 13.144 53.8391 13 52.9631 12.712C52.0871 12.412 51.3971 12.028 50.8931 11.56L51.5591 10.156C52.0391 10.576 52.6511 10.924 53.3951 11.2C54.1391 11.476 54.9131 11.614 55.7171 11.614C56.4491 11.614 57.0431 11.53 57.4991 11.362C57.9551 11.194 58.2911 10.966 58.5071 10.678C58.7231 10.378 58.8311 10.042 58.8311 9.67C58.8311 9.238 58.6871 8.89 58.3991 8.626C58.1231 8.362 57.7571 8.152 57.3011 7.996C56.8571 7.828 56.3651 7.684 55.8251 7.564C55.2851 7.444 54.7391 7.306 54.1871 7.15C53.6471 6.982 53.1491 6.772 52.6931 6.52C52.2491 6.268 51.8891 5.932 51.6131 5.512C51.3371 5.08 51.1991 4.528 51.1991 3.856C51.1991 3.208 51.3671 2.614 51.7031 2.074C52.0511 1.522 52.5791 1.084 53.2871 0.76C54.0071 0.424 54.9191 0.256 56.0231 0.256C56.7551 0.256 57.4811 0.352 58.2011 0.543999C58.9211 0.735999 59.5451 1.012 60.0731 1.372L59.4791 2.812C58.9391 2.452 58.3691 2.194 57.7691 2.038C57.1691 1.87 56.5871 1.786 56.0231 1.786C55.3151 1.786 54.7331 1.876 54.2771 2.056C53.8211 2.236 53.4851 2.476 53.2691 2.776C53.0651 3.076 52.9631 3.412 52.9631 3.784C52.9631 4.228 53.1011 4.582 53.3771 4.846C53.6651 5.11 54.0311 5.32 54.4751 5.476C54.9311 5.632 55.4291 5.776 55.9691 5.908C56.5091 6.028 57.0491 6.166 57.5891 6.322C58.1411 6.478 58.6391 6.682 59.0831 6.934C59.5391 7.186 59.9051 7.522 60.1811 7.942C60.4571 8.362 60.5951 8.902 60.5951 9.562C60.5951 10.198 60.4211 10.792 60.0731 11.344C59.7251 11.884 59.1851 12.322 58.4531 12.658C57.7331 12.982 56.8211 13.144 55.7171 13.144ZM65.191 13V1.966H60.871V0.399999H71.293V1.966H66.973V13H65.191ZM77.8849 13.144C76.2289 13.144 74.9269 12.67 73.9789 11.722C73.0309 10.774 72.5569 9.388 72.5569 7.564V0.399999H74.3569V7.492C74.3569 8.896 74.6629 9.922 75.2749 10.57C75.8989 11.218 76.7749 11.542 77.9029 11.542C79.0429 11.542 79.9189 11.218 80.5309 10.57C81.1549 9.922 81.4669 8.896 81.4669 7.492V0.399999H83.2129V7.564C83.2129 9.388 82.7389 10.774 81.7909 11.722C80.8549 12.67 79.5529 13.144 77.8849 13.144ZM88.1632 6.358H94.6612V7.906H88.1632V6.358ZM88.3432 13H86.5432V0.399999H95.4352V1.966H88.3432V13ZM99.229 6.358H105.727V7.906H99.229V6.358ZM99.409 13H97.609V0.399999H106.501V1.966H99.409V13Z" fill="#0A0D11"/>
</svg>
