<svg width="165" height="50" viewBox="0 0 165 50" fill="none" xmlns="http://www.w3.org/2000/svg">
<rect width="165" height="50" rx="5" fill="url(#paint0_linear_325_251)"/>
<path d="M33.375 27.625V31.125C33.375 31.5891 33.1906 32.0342 32.8624 32.3624C32.5342 32.6906 32.0891 32.875 31.625 32.875H19.375C18.9109 32.875 18.4658 32.6906 18.1376 32.3624C17.8094 32.0342 17.625 31.5891 17.625 31.125V27.625M21.125 23.25L25.5 27.625M25.5 27.625L29.875 23.25M25.5 27.625V17.125" stroke="#0A0D11" stroke-width="2" stroke-linecap="round" stroke-linejoin="round"/>
<path d="M41.68 31V19.8H46.4C47.5947 19.8 48.6453 20.0347 49.552 20.504C50.4693 20.9733 51.1787 21.6293 51.68 22.472C52.192 23.3147 52.448 24.2907 52.448 25.4C52.448 26.5093 52.192 27.4853 51.68 28.328C51.1787 29.1707 50.4693 29.8267 49.552 30.296C48.6453 30.7653 47.5947 31 46.4 31H41.68ZM43.28 29.608H46.304C47.232 29.608 48.032 29.432 48.704 29.08C49.3867 28.728 49.9147 28.2373 50.288 27.608C50.6613 26.968 50.848 26.232 50.848 25.4C50.848 24.5573 50.6613 23.8213 50.288 23.192C49.9147 22.5627 49.3867 22.072 48.704 21.72C48.032 21.368 47.232 21.192 46.304 21.192H43.28V29.608ZM60.6748 31.128C59.8214 31.128 59.0268 30.984 58.2908 30.696C57.5654 30.408 56.9361 30.008 56.4028 29.496C55.8694 28.9733 55.4534 28.3653 55.1548 27.672C54.8561 26.9787 54.7068 26.2213 54.7068 25.4C54.7068 24.5787 54.8561 23.8213 55.1548 23.128C55.4534 22.4347 55.8694 21.832 56.4028 21.32C56.9361 20.7973 57.5654 20.392 58.2908 20.104C59.0161 19.816 59.8108 19.672 60.6748 19.672C61.5281 19.672 62.3121 19.816 63.0268 20.104C63.7521 20.3813 64.3814 20.7813 64.9148 21.304C65.4588 21.816 65.8748 22.4187 66.1628 23.112C66.4614 23.8053 66.6108 24.568 66.6108 25.4C66.6108 26.232 66.4614 26.9947 66.1628 27.688C65.8748 28.3813 65.4588 28.9893 64.9148 29.512C64.3814 30.024 63.7521 30.424 63.0268 30.712C62.3121 30.9893 61.5281 31.128 60.6748 31.128ZM60.6748 29.704C61.2934 29.704 61.8641 29.5973 62.3868 29.384C62.9201 29.1707 63.3788 28.872 63.7628 28.488C64.1574 28.0933 64.4614 27.6347 64.6748 27.112C64.8988 26.5893 65.0108 26.0187 65.0108 25.4C65.0108 24.7813 64.8988 24.2107 64.6748 23.688C64.4614 23.1653 64.1574 22.712 63.7628 22.328C63.3788 21.9333 62.9201 21.6293 62.3868 21.416C61.8641 21.2027 61.2934 21.096 60.6748 21.096C60.0454 21.096 59.4641 21.2027 58.9308 21.416C58.4081 21.6293 57.9494 21.9333 57.5548 22.328C57.1601 22.712 56.8508 23.1653 56.6268 23.688C56.4134 24.2107 56.3068 24.7813 56.3068 25.4C56.3068 26.0187 56.4134 26.5893 56.6268 27.112C56.8508 27.6347 57.1601 28.0933 57.5548 28.488C57.9494 28.872 58.4081 29.1707 58.9308 29.384C59.4641 29.5973 60.0454 29.704 60.6748 29.704ZM72.0085 31L68.2645 19.8H69.9125L73.3525 30.136H72.5205L76.0885 19.8H77.5605L81.0485 30.136H80.2485L83.7365 19.8H85.2565L81.5125 31H79.8325L76.5685 21.416H77.0005L73.7205 31H72.0085ZM87.9337 31V19.8H89.2457L96.6538 29H95.9658V19.8H97.5658V31H96.2537L88.8457 21.8H89.5338V31H87.9337ZM101.638 31V19.8H103.238V29.608H109.302V31H101.638ZM116.711 31.128C115.858 31.128 115.063 30.984 114.327 30.696C113.602 30.408 112.972 30.008 112.439 29.496C111.906 28.9733 111.49 28.3653 111.191 27.672C110.892 26.9787 110.743 26.2213 110.743 25.4C110.743 24.5787 110.892 23.8213 111.191 23.128C111.49 22.4347 111.906 21.832 112.439 21.32C112.972 20.7973 113.602 20.392 114.327 20.104C115.052 19.816 115.847 19.672 116.711 19.672C117.564 19.672 118.348 19.816 119.063 20.104C119.788 20.3813 120.418 20.7813 120.951 21.304C121.495 21.816 121.911 22.4187 122.199 23.112C122.498 23.8053 122.647 24.568 122.647 25.4C122.647 26.232 122.498 26.9947 122.199 27.688C121.911 28.3813 121.495 28.9893 120.951 29.512C120.418 30.024 119.788 30.424 119.063 30.712C118.348 30.9893 117.564 31.128 116.711 31.128ZM116.711 29.704C117.33 29.704 117.9 29.5973 118.423 29.384C118.956 29.1707 119.415 28.872 119.799 28.488C120.194 28.0933 120.498 27.6347 120.711 27.112C120.935 26.5893 121.047 26.0187 121.047 25.4C121.047 24.7813 120.935 24.2107 120.711 23.688C120.498 23.1653 120.194 22.712 119.799 22.328C119.415 21.9333 118.956 21.6293 118.423 21.416C117.9 21.2027 117.33 21.096 116.711 21.096C116.082 21.096 115.5 21.2027 114.967 21.416C114.444 21.6293 113.986 21.9333 113.591 22.328C113.196 22.712 112.887 23.1653 112.663 23.688C112.45 24.2107 112.343 24.7813 112.343 25.4C112.343 26.0187 112.45 26.5893 112.663 27.112C112.887 27.6347 113.196 28.0933 113.591 28.488C113.986 28.872 114.444 29.1707 114.967 29.384C115.5 29.5973 116.082 29.704 116.711 29.704ZM123.96 31L129.032 19.8H130.616L135.704 31H134.024L129.496 20.696H130.136L125.608 31H123.96ZM126.12 28.2L126.552 26.92H132.856L133.32 28.2H126.12ZM138.095 31V19.8H142.815C144.01 19.8 145.06 20.0347 145.967 20.504C146.884 20.9733 147.594 21.6293 148.095 22.472C148.607 23.3147 148.863 24.2907 148.863 25.4C148.863 26.5093 148.607 27.4853 148.095 28.328C147.594 29.1707 146.884 29.8267 145.967 30.296C145.06 30.7653 144.01 31 142.815 31H138.095ZM139.695 29.608H142.719C143.647 29.608 144.447 29.432 145.119 29.08C145.802 28.728 146.33 28.2373 146.703 27.608C147.076 26.968 147.263 26.232 147.263 25.4C147.263 24.5573 147.076 23.8213 146.703 23.192C146.33 22.5627 145.802 22.072 145.119 21.72C144.447 21.368 143.647 21.192 142.719 21.192H139.695V29.608Z" fill="#0A0D11"/>
<rect x="0.5" y="0.5" width="164" height="49" rx="4.5" stroke="url(#paint1_linear_325_251)" stroke-opacity="0.2"/>
<defs>
<linearGradient id="paint0_linear_325_251" x1="157.721" y1="47.0588" x2="94.1625" y2="-52.4652" gradientUnits="userSpaceOnUse">
<stop stop-color="#FFE5A2"/>
<stop offset="0.505208" stop-color="#BF841A"/>
<stop offset="1" stop-color="#FFCD74"/>
</linearGradient>
<linearGradient id="paint1_linear_325_251" x1="165" y1="50" x2="101.525" y2="22.6334" gradientUnits="userSpaceOnUse">
<stop stop-color="#FFDC8F"/>
<stop offset="1" stop-opacity="0"/>
</linearGradient>
</defs>
</svg>
