<svg width="170" height="50" viewBox="0 0 170 50" fill="none" xmlns="http://www.w3.org/2000/svg">
<rect width="170" height="50" rx="5" fill="url(#paint0_linear_160_180)"/>
<path d="M34.01 24.358H40.508V25.906H34.01V24.358ZM34.19 31H32.39V18.4H41.282V19.966H34.19V31ZM43.4558 31V18.4H48.3698C49.4738 18.4 50.4158 18.574 51.1958 18.922C51.9758 19.27 52.5758 19.774 52.9958 20.434C53.4158 21.094 53.6258 21.88 53.6258 22.792C53.6258 23.704 53.4158 24.49 52.9958 25.15C52.5758 25.798 51.9758 26.296 51.1958 26.644C50.4158 26.992 49.4738 27.166 48.3698 27.166H44.4458L45.2558 26.338V31H43.4558ZM51.8798 31L48.6758 26.428H50.6018L53.8418 31H51.8798ZM45.2558 26.518L44.4458 25.636H48.3158C49.4678 25.636 50.3378 25.39 50.9258 24.898C51.5258 24.394 51.8258 23.692 51.8258 22.792C51.8258 21.892 51.5258 21.196 50.9258 20.704C50.3378 20.212 49.4678 19.966 48.3158 19.966H44.4458L45.2558 19.066V26.518ZM57.8119 23.836H64.2919V25.366H57.8119V23.836ZM57.9739 29.434H65.3179V31H56.1739V18.4H65.0659V19.966H57.9739V29.434ZM69.5105 23.836H75.9905V25.366H69.5105V23.836ZM69.6725 29.434H77.0165V31H67.8725V18.4H76.7645V19.966H69.6725V29.434ZM87.7171 31.144C86.7571 31.144 85.8391 31 84.9631 30.712C84.0871 30.412 83.3971 30.028 82.8931 29.56L83.5591 28.156C84.0391 28.576 84.6511 28.924 85.3951 29.2C86.1391 29.476 86.9131 29.614 87.7171 29.614C88.4491 29.614 89.0431 29.53 89.4991 29.362C89.9551 29.194 90.2911 28.966 90.5071 28.678C90.7231 28.378 90.8311 28.042 90.8311 27.67C90.8311 27.238 90.6871 26.89 90.3991 26.626C90.1231 26.362 89.7571 26.152 89.3011 25.996C88.8571 25.828 88.3651 25.684 87.8251 25.564C87.2851 25.444 86.7391 25.306 86.1871 25.15C85.6471 24.982 85.1491 24.772 84.6931 24.52C84.2491 24.268 83.8891 23.932 83.6131 23.512C83.3371 23.08 83.1991 22.528 83.1991 21.856C83.1991 21.208 83.3671 20.614 83.7031 20.074C84.0511 19.522 84.5791 19.084 85.2871 18.76C86.0071 18.424 86.9191 18.256 88.0231 18.256C88.7551 18.256 89.4811 18.352 90.2011 18.544C90.9211 18.736 91.5451 19.012 92.0731 19.372L91.4791 20.812C90.9391 20.452 90.3691 20.194 89.7691 20.038C89.1691 19.87 88.5871 19.786 88.0231 19.786C87.3151 19.786 86.7331 19.876 86.2771 20.056C85.8211 20.236 85.4851 20.476 85.2691 20.776C85.0651 21.076 84.9631 21.412 84.9631 21.784C84.9631 22.228 85.1011 22.582 85.3771 22.846C85.6651 23.11 86.0311 23.32 86.4751 23.476C86.9311 23.632 87.4291 23.776 87.9691 23.908C88.5091 24.028 89.0491 24.166 89.5891 24.322C90.1411 24.478 90.6391 24.682 91.0831 24.934C91.5391 25.186 91.9051 25.522 92.1811 25.942C92.4571 26.362 92.5951 26.902 92.5951 27.562C92.5951 28.198 92.4211 28.792 92.0731 29.344C91.7251 29.884 91.1851 30.322 90.4531 30.658C89.7331 30.982 88.8211 31.144 87.7171 31.144ZM97.191 31V19.966H92.871V18.4H103.293V19.966H98.973V31H97.191ZM109.885 31.144C108.229 31.144 106.927 30.67 105.979 29.722C105.031 28.774 104.557 27.388 104.557 25.564V18.4H106.357V25.492C106.357 26.896 106.663 27.922 107.275 28.57C107.899 29.218 108.775 29.542 109.903 29.542C111.043 29.542 111.919 29.218 112.531 28.57C113.155 27.922 113.467 26.896 113.467 25.492V18.4H115.213V25.564C115.213 27.388 114.739 28.774 113.791 29.722C112.855 30.67 111.553 31.144 109.885 31.144ZM120.163 24.358H126.661V25.906H120.163V24.358ZM120.343 31H118.543V18.4H127.435V19.966H120.343V31ZM131.229 24.358H137.727V25.906H131.229V24.358ZM131.409 31H129.609V18.4H138.501V19.966H131.409V31Z" fill="#0A0D11"/>
<rect x="0.5" y="0.5" width="169" height="49" rx="4.5" stroke="url(#paint1_linear_160_180)" stroke-opacity="0.2"/>
<defs>
<linearGradient id="paint0_linear_160_180" x1="162.5" y1="47.0588" x2="99.7578" y2="-54.1647" gradientUnits="userSpaceOnUse">
<stop stop-color="#FFE5A2"/>
<stop offset="0.505208" stop-color="#BF841A"/>
<stop offset="1" stop-color="#FFCD74"/>
</linearGradient>
<linearGradient id="paint1_linear_160_180" x1="170" y1="50" x2="105.226" y2="21.2272" gradientUnits="userSpaceOnUse">
<stop stop-color="#FFDC8F"/>
<stop offset="1" stop-opacity="0"/>
</linearGradient>
</defs>
</svg>
