<svg width="378" height="50" viewBox="0 0 378 50" fill="none" xmlns="http://www.w3.org/2000/svg">
<g clip-path="url(#clip0_326_314)">
<rect x="0.5" y="0.5" width="49" height="49" stroke="url(#paint0_radial_326_314)"/>
<path d="M15.2609 14C13.375 14 12.0053 15.1125 12.0053 16.6426C12.0053 18.1781 13.4076 19.3396 15.2609 19.3396C17.1467 19.3396 18.5164 18.2056 18.5164 16.6113C18.4295 15.0758 17.087 14 15.2609 14ZM12.5435 20.4148C12.2446 20.4148 12 20.6556 12 20.9498V36.465C12 36.7592 12.2446 37 12.5435 37H17.9783C18.2772 37 18.5217 36.7592 18.5217 36.465V20.9498C18.5217 20.6556 18.2772 20.4148 17.9783 20.4148H12.5435ZM22.6957 20.4148C22.3967 20.4148 22.1522 20.6556 22.1522 20.9498V36.465C22.1522 36.7592 22.3967 37 22.6957 37H27.587C27.887 37 28.1304 36.7603 28.1304 36.465V28.4399V28.3062V28.1724C28.1304 26.9045 29.1199 25.8716 30.3808 25.7753C30.446 25.7646 30.5109 25.7649 30.5761 25.7649C30.6413 25.7649 30.7062 25.7646 30.7714 25.7753C32.0323 25.8716 33.0217 26.9045 33.0217 28.1724V36.465C33.0217 36.7603 33.2652 37 33.5652 37H38.4565C38.7554 37 39 36.7592 39 36.465V27.3699C39 23.9084 37.1136 20.4148 32.9071 20.4148C30.9941 20.4148 29.5489 21.1426 28.6739 21.7471V20.9498C28.6739 20.6556 28.4293 20.4148 28.1304 20.4148H22.6957Z" fill="url(#paint1_linear_326_314)"/>
</g>
<g clip-path="url(#clip1_326_314)">
<path d="M107.5 14C101.149 14 96 19.1489 96 25.5C96 31.8511 101.149 37 107.5 37C113.851 37 119 31.8511 119 25.5C119 19.1489 113.851 14 107.5 14ZM115.235 19.6054C116.447 21.1915 117.181 23.1593 117.225 25.2943C115.244 24.9197 112.952 24.7366 110.521 25.2271C110.231 24.5535 109.926 23.882 109.599 23.2159C112.459 22.0195 114.281 20.5369 115.235 19.6054ZM114.031 18.293C113.204 19.0927 111.502 20.4851 108.765 21.6099C107.717 19.6788 106.521 17.8052 105.2 16.0466C105.938 15.8665 106.707 15.7692 107.5 15.7692C110.011 15.7692 112.303 16.7255 114.031 18.293ZM103.441 16.6596C104.793 18.4085 106.015 20.2812 107.082 22.2163C104.696 22.9696 101.699 23.472 98.0134 23.3433C98.6888 20.3692 100.73 17.9096 103.441 16.6596ZM97.7692 25.5C97.7692 25.3673 97.7741 25.2351 97.7794 25.1037C98.2712 25.124 98.756 25.1373 99.2262 25.1373C102.725 25.1373 105.603 24.5977 107.933 23.8334C108.238 24.4478 108.524 25.067 108.796 25.688C106.024 26.6164 103.13 28.5241 100.348 32.0895C98.7485 30.3548 97.7692 28.0402 97.7692 25.5ZM101.663 33.2802C104.254 29.9218 106.911 28.1512 109.472 27.3201C110.399 29.7125 111.061 32.1107 111.411 34.4076C110.213 34.9353 108.891 35.2308 107.5 35.2308C105.311 35.2308 103.29 34.5041 101.663 33.2802ZM113.057 33.481C112.679 31.3318 112.048 29.1092 111.202 26.8919C113.291 26.5279 115.288 26.7106 117.102 27.072C116.67 29.7174 115.169 32.0063 113.057 33.481Z" fill="url(#paint2_linear_326_314)"/>
<rect x="82.5" y="0.5" width="49" height="49" stroke="url(#paint3_radial_326_314)"/>
</g>
<g clip-path="url(#clip2_326_314)">
<rect x="164.5" y="0.5" width="49" height="49" stroke="url(#paint4_radial_326_314)"/>
<path d="M184.389 14C180.866 14 178 16.8661 178 20.3889V30.6111C178 34.1339 180.866 37 184.389 37H194.611C198.134 37 201 34.1339 201 30.6111V20.3889C201 16.8661 198.134 14 194.611 14H184.389ZM184.389 16.5556H194.611C196.725 16.5556 198.444 18.2754 198.444 20.3889V30.6111C198.444 32.7246 196.725 34.4444 194.611 34.4444H184.389C182.275 34.4444 180.556 32.7246 180.556 30.6111V20.3889C180.556 18.2754 182.275 16.5556 184.389 16.5556ZM195.889 17.8333C195.55 17.8333 195.225 17.968 194.985 18.2076C194.746 18.4472 194.611 18.7722 194.611 19.1111C194.611 19.45 194.746 19.775 194.985 20.0146C195.225 20.2543 195.55 20.3889 195.889 20.3889C196.228 20.3889 196.553 20.2543 196.792 20.0146C197.032 19.775 197.167 19.45 197.167 19.1111C197.167 18.7722 197.032 18.4472 196.792 18.2076C196.553 17.968 196.228 17.8333 195.889 17.8333ZM189.5 19.1111C185.977 19.1111 183.111 21.9772 183.111 25.5C183.111 29.0228 185.977 31.8889 189.5 31.8889C193.023 31.8889 195.889 29.0228 195.889 25.5C195.889 21.9772 193.023 19.1111 189.5 19.1111ZM189.5 21.6667C191.613 21.6667 193.333 23.3866 193.333 25.5C193.333 27.6134 191.613 29.3333 189.5 29.3333C187.387 29.3333 185.667 27.6134 185.667 25.5C185.667 23.3866 187.387 21.6667 189.5 21.6667Z" fill="url(#paint5_linear_326_314)"/>
</g>
<g clip-path="url(#clip3_326_314)">
<path d="M257.217 13L259.652 16.164V31.1976L256 35.9915H264.522L260.87 31.1976V17.8158L268.783 35.9915L268.781 36L276.087 17.6884V33.5059L273.652 35.9915H284L281.565 33.5059L281.549 15.7987L283.917 13.0085H276.602L270.977 27.133L264.824 13H257.217Z" fill="url(#paint6_linear_326_314)"/>
<rect x="246.5" y="0.5" width="49" height="49" stroke="url(#paint7_radial_326_314)"/>
</g>
<g clip-path="url(#clip4_326_314)">
<rect x="328.5" y="0.5" width="49" height="49" stroke="url(#paint8_radial_326_314)"/>
<path d="M366 18.375C366 17.0687 364.875 16 363.5 16H343.5C342.125 16 341 17.0687 341 18.375M366 18.375V32.625C366 33.9313 364.875 35 363.5 35H343.5C342.125 35 341 33.9313 341 32.625V18.375M366 18.375L353.5 26.6875L341 18.375" stroke="url(#paint9_linear_326_314)" stroke-width="2" stroke-linecap="round" stroke-linejoin="round"/>
</g>
<defs>
<radialGradient id="paint0_radial_326_314" cx="0" cy="0" r="1" gradientUnits="userSpaceOnUse" gradientTransform="rotate(50.7106) scale(32.3015 82.1945)">
<stop stop-color="#FFE195"/>
<stop offset="0.177083" stop-color="#F2BB5A" stop-opacity="0.876812"/>
<stop offset="0.359375" stop-color="#BF7A00" stop-opacity="0.75"/>
<stop offset="1" stop-color="#BF7A00" stop-opacity="0"/>
<stop offset="1" stop-color="#0F1218" stop-opacity="0"/>
</radialGradient>
<linearGradient id="paint1_linear_326_314" x1="37.8088" y1="35.6471" x2="10.4087" y2="20.3844" gradientUnits="userSpaceOnUse">
<stop stop-color="#FFE5A2"/>
<stop offset="0.505208" stop-color="#BF841A"/>
<stop offset="1" stop-color="#FFCD74"/>
</linearGradient>
<linearGradient id="paint2_linear_326_314" x1="117.985" y1="35.6471" x2="93.0227" y2="23.8021" gradientUnits="userSpaceOnUse">
<stop stop-color="#FFE5A2"/>
<stop offset="0.505208" stop-color="#BF841A"/>
<stop offset="1" stop-color="#FFCD74"/>
</linearGradient>
<radialGradient id="paint3_radial_326_314" cx="0" cy="0" r="1" gradientUnits="userSpaceOnUse" gradientTransform="translate(82) rotate(50.7106) scale(32.3015 82.1945)">
<stop stop-color="#FFE195"/>
<stop offset="0.177083" stop-color="#F2BB5A" stop-opacity="0.876812"/>
<stop offset="0.359375" stop-color="#BF7A00" stop-opacity="0.75"/>
<stop offset="1" stop-color="#BF7A00" stop-opacity="0"/>
<stop offset="1" stop-color="#0F1218" stop-opacity="0"/>
</radialGradient>
<radialGradient id="paint4_radial_326_314" cx="0" cy="0" r="1" gradientUnits="userSpaceOnUse" gradientTransform="translate(164) rotate(50.7106) scale(32.3015 82.1945)">
<stop stop-color="#FFE195"/>
<stop offset="0.177083" stop-color="#F2BB5A" stop-opacity="0.876812"/>
<stop offset="0.359375" stop-color="#BF7A00" stop-opacity="0.75"/>
<stop offset="1" stop-color="#BF7A00" stop-opacity="0"/>
<stop offset="1" stop-color="#0F1218" stop-opacity="0"/>
</radialGradient>
<linearGradient id="paint5_linear_326_314" x1="199.985" y1="35.6471" x2="175.023" y2="23.8021" gradientUnits="userSpaceOnUse">
<stop stop-color="#FFE5A2"/>
<stop offset="0.505208" stop-color="#BF841A"/>
<stop offset="1" stop-color="#FFCD74"/>
</linearGradient>
<linearGradient id="paint6_linear_326_314" x1="282.765" y1="34.6471" x2="254.849" y2="18.521" gradientUnits="userSpaceOnUse">
<stop stop-color="#FFE5A2"/>
<stop offset="0.505208" stop-color="#BF841A"/>
<stop offset="1" stop-color="#FFCD74"/>
</linearGradient>
<radialGradient id="paint7_radial_326_314" cx="0" cy="0" r="1" gradientUnits="userSpaceOnUse" gradientTransform="translate(246) rotate(50.7106) scale(32.3015 82.1945)">
<stop stop-color="#FFE195"/>
<stop offset="0.177083" stop-color="#F2BB5A" stop-opacity="0.876812"/>
<stop offset="0.359375" stop-color="#BF7A00" stop-opacity="0.75"/>
<stop offset="1" stop-color="#BF7A00" stop-opacity="0"/>
<stop offset="1" stop-color="#0F1218" stop-opacity="0"/>
</radialGradient>
<radialGradient id="paint8_radial_326_314" cx="0" cy="0" r="1" gradientUnits="userSpaceOnUse" gradientTransform="translate(328) rotate(50.7106) scale(32.3015 82.1945)">
<stop stop-color="#FFE195"/>
<stop offset="0.177083" stop-color="#F2BB5A" stop-opacity="0.876812"/>
<stop offset="0.359375" stop-color="#BF7A00" stop-opacity="0.75"/>
<stop offset="1" stop-color="#BF7A00" stop-opacity="0"/>
<stop offset="1" stop-color="#0F1218" stop-opacity="0"/>
</radialGradient>
<linearGradient id="paint9_linear_326_314" x1="364.897" y1="33.8824" x2="340.978" y2="18.9487" gradientUnits="userSpaceOnUse">
<stop stop-color="#FFE5A2"/>
<stop offset="0.505208" stop-color="#BF841A"/>
<stop offset="1" stop-color="#FFCD74"/>
</linearGradient>
<clipPath id="clip0_326_314">
<rect width="50" height="50" fill="white"/>
</clipPath>
<clipPath id="clip1_326_314">
<rect width="50" height="50" fill="white" transform="translate(82)"/>
</clipPath>
<clipPath id="clip2_326_314">
<rect width="50" height="50" fill="white" transform="translate(164)"/>
</clipPath>
<clipPath id="clip3_326_314">
<rect width="50" height="50" fill="white" transform="translate(246)"/>
</clipPath>
<clipPath id="clip4_326_314">
<rect width="50" height="50" fill="white" transform="translate(328)"/>
</clipPath>
</defs>
</svg>
