<svg width="180" height="54" viewBox="0 0 180 54" fill="none" xmlns="http://www.w3.org/2000/svg">
<path d="M38.788 33L34.576 20.4H36.43L40.3 32.028H39.364L43.378 20.4H45.034L48.958 32.028H48.058L51.982 20.4H53.692L49.48 33H47.59L43.918 22.218H44.404L40.714 33H38.788ZM64.1589 33.144C63.1989 33.144 62.3049 32.982 61.4769 32.658C60.6609 32.334 59.9529 31.884 59.3529 31.308C58.7529 30.72 58.2849 30.036 57.9489 29.256C57.6129 28.476 57.4449 27.624 57.4449 26.7C57.4449 25.776 57.6129 24.924 57.9489 24.144C58.2849 23.364 58.7529 22.686 59.3529 22.11C59.9529 21.522 60.6609 21.066 61.4769 20.742C62.2929 20.418 63.1869 20.256 64.1589 20.256C65.1189 20.256 66.0009 20.418 66.8049 20.742C67.6209 21.054 68.3289 21.504 68.9289 22.092C69.5409 22.668 70.0089 23.346 70.3329 24.126C70.6689 24.906 70.8369 25.764 70.8369 26.7C70.8369 27.636 70.6689 28.494 70.3329 29.274C70.0089 30.054 69.5409 30.738 68.9289 31.326C68.3289 31.902 67.6209 32.352 66.8049 32.676C66.0009 32.988 65.1189 33.144 64.1589 33.144ZM64.1589 31.542C64.8549 31.542 65.4969 31.422 66.0849 31.182C66.6849 30.942 67.2009 30.606 67.6329 30.174C68.0769 29.73 68.4189 29.214 68.6589 28.626C68.9109 28.038 69.0369 27.396 69.0369 26.7C69.0369 26.004 68.9109 25.362 68.6589 24.774C68.4189 24.186 68.0769 23.676 67.6329 23.244C67.2009 22.8 66.6849 22.458 66.0849 22.218C65.4969 21.978 64.8549 21.858 64.1589 21.858C63.4509 21.858 62.7969 21.978 62.1969 22.218C61.6089 22.458 61.0929 22.8 60.6489 23.244C60.2049 23.676 59.8569 24.186 59.6049 24.774C59.3649 25.362 59.2449 26.004 59.2449 26.7C59.2449 27.396 59.3649 28.038 59.6049 28.626C59.8569 29.214 60.2049 29.73 60.6489 30.174C61.0929 30.606 61.6089 30.942 62.1969 31.182C62.7969 31.422 63.4509 31.542 64.1589 31.542ZM76.288 33V20.4H81.202C82.306 20.4 83.248 20.574 84.028 20.922C84.808 21.27 85.408 21.774 85.828 22.434C86.248 23.094 86.458 23.88 86.458 24.792C86.458 25.704 86.248 26.49 85.828 27.15C85.408 27.798 84.808 28.296 84.028 28.644C83.248 28.992 82.306 29.166 81.202 29.166H77.278L78.088 28.338V33H76.288ZM84.712 33L81.508 28.428H83.434L86.674 33H84.712ZM78.088 28.518L77.278 27.636H81.148C82.3 27.636 83.17 27.39 83.758 26.898C84.358 26.394 84.658 25.692 84.658 24.792C84.658 23.892 84.358 23.196 83.758 22.704C83.17 22.212 82.3 21.966 81.148 21.966H77.278L78.088 21.066V28.518ZM93.6502 29.958L93.5602 27.762L100.706 20.4H102.758L97.2322 26.232L96.2242 27.348L93.6502 29.958ZM92.0662 33V20.4H93.8662V33H92.0662ZM100.994 33L95.8282 26.988L97.0342 25.656L103.1 33H100.994ZM111.112 33.144C110.152 33.144 109.234 33 108.358 32.712C107.482 32.412 106.792 32.028 106.288 31.56L106.954 30.156C107.434 30.576 108.046 30.924 108.79 31.2C109.534 31.476 110.308 31.614 111.112 31.614C111.844 31.614 112.438 31.53 112.894 31.362C113.35 31.194 113.686 30.966 113.902 30.678C114.118 30.378 114.226 30.042 114.226 29.67C114.226 29.238 114.082 28.89 113.794 28.626C113.518 28.362 113.152 28.152 112.696 27.996C112.252 27.828 111.76 27.684 111.22 27.564C110.68 27.444 110.134 27.306 109.582 27.15C109.042 26.982 108.544 26.772 108.088 26.52C107.644 26.268 107.284 25.932 107.008 25.512C106.732 25.08 106.594 24.528 106.594 23.856C106.594 23.208 106.762 22.614 107.098 22.074C107.446 21.522 107.974 21.084 108.682 20.76C109.402 20.424 110.314 20.256 111.418 20.256C112.15 20.256 112.876 20.352 113.596 20.544C114.316 20.736 114.94 21.012 115.468 21.372L114.874 22.812C114.334 22.452 113.764 22.194 113.164 22.038C112.564 21.87 111.982 21.786 111.418 21.786C110.71 21.786 110.128 21.876 109.672 22.056C109.216 22.236 108.88 22.476 108.664 22.776C108.46 23.076 108.358 23.412 108.358 23.784C108.358 24.228 108.496 24.582 108.772 24.846C109.06 25.11 109.426 25.32 109.87 25.476C110.326 25.632 110.824 25.776 111.364 25.908C111.904 26.028 112.444 26.166 112.984 26.322C113.536 26.478 114.034 26.682 114.478 26.934C114.934 27.186 115.3 27.522 115.576 27.942C115.852 28.362 115.99 28.902 115.99 29.562C115.99 30.198 115.816 30.792 115.468 31.344C115.12 31.884 114.58 32.322 113.848 32.658C113.128 32.982 112.216 33.144 111.112 33.144Z" fill="url(#paint0_linear_171_51)"/>
<g clip-path="url(#clip0_171_51)">
<path d="M130.25 24.375L135.5 29.625L140.75 24.375" stroke="url(#paint1_linear_171_51)" stroke-width="2" stroke-linecap="round" stroke-linejoin="round"/>
</g>
<path d="M0.5 0.5H179.5V53.5H0.5V0.5Z" stroke="url(#paint2_linear_171_51)"/>
<path d="M0.5 0.5H179.5V53.5H0.5V0.5Z" stroke="url(#paint3_linear_171_51)" stroke-opacity="0.2"/>
<defs>
<linearGradient id="paint0_linear_171_51" x1="113.338" y1="49.0588" x2="45.2304" y2="-4.58852" gradientUnits="userSpaceOnUse">
<stop stop-color="#FFE5A2"/>
<stop offset="0.505208" stop-color="#BF841A"/>
<stop offset="1" stop-color="#FFCD74"/>
</linearGradient>
<linearGradient id="paint1_linear_171_51" x1="140.287" y1="29.3162" x2="132.941" y2="22.3448" gradientUnits="userSpaceOnUse">
<stop stop-color="#FFE5A2"/>
<stop offset="0.505208" stop-color="#BF841A"/>
<stop offset="1" stop-color="#FFCD74"/>
</linearGradient>
<linearGradient id="paint2_linear_171_51" x1="-9.10112" y1="-4.5" x2="6.32613" y2="50.1329" gradientUnits="userSpaceOnUse">
<stop stop-color="#FFE195"/>
<stop offset="0.177083" stop-color="#F2BB5A" stop-opacity="0.876812"/>
<stop offset="0.359375" stop-color="#BF7A00" stop-opacity="0.75"/>
<stop offset="1" stop-color="#BF7A00" stop-opacity="0"/>
<stop offset="1" stop-color="#0F1218" stop-opacity="0"/>
</linearGradient>
<linearGradient id="paint3_linear_171_51" x1="155.094" y1="62.5909" x2="108.025" y2="28.2035" gradientUnits="userSpaceOnUse">
<stop stop-color="#8FA8FF"/>
<stop offset="1" stop-opacity="0"/>
</linearGradient>
<clipPath id="clip0_171_51">
<rect width="21" height="21" fill="white" transform="translate(125 16.5)"/>
</clipPath>
</defs>
</svg>
